<svg width="978" height="351" viewBox="0 0 978 351" fill="none" xmlns="http://www.w3.org/2000/svg">
<path d="M508.494 96.3793C508.494 106.76 500.131 115.123 489.75 115.123C479.369 115.123 471.007 106.76 471.007 96.3793C471.007 85.9982 479.081 77.6357 489.75 77.6357C500.42 77.9241 508.494 86.2866 508.494 96.3793ZM431.212 134.155V138.769C431.212 138.769 422.273 127.234 403.241 127.234C371.809 127.234 347.299 151.168 347.299 184.33C347.299 217.204 371.521 241.426 403.241 241.426C422.562 241.426 431.212 229.603 431.212 229.603V234.506C431.212 236.813 432.943 238.543 435.25 238.543H458.607V130.118H435.25C432.943 130.118 431.212 132.136 431.212 134.155ZM431.212 203.651C426.887 209.995 418.236 215.474 407.855 215.474C389.4 215.474 375.27 203.939 375.27 184.33C375.27 164.722 389.4 153.187 407.855 153.187C417.948 153.187 427.175 158.954 431.212 165.01V203.651ZM475.909 130.118H503.592V238.543H475.909V130.118ZM889.423 127.234C870.391 127.234 861.451 138.769 861.451 138.769V77.9241H833.768V238.543H857.126C859.433 238.543 861.163 236.524 861.163 234.506V229.603C861.163 229.603 870.102 241.426 889.134 241.426C920.566 241.426 945.077 217.204 945.077 184.33C945.077 151.457 920.566 127.234 889.423 127.234ZM884.809 215.185C874.139 215.185 865.777 209.706 861.451 203.362V164.722C865.777 158.954 875.005 152.899 884.809 152.899C903.264 152.899 917.394 164.433 917.394 184.042C917.394 203.651 903.264 215.185 884.809 215.185ZM819.35 174.238V238.831H791.667V177.41C791.667 159.531 785.9 152.322 770.328 152.322C761.966 152.322 753.315 156.647 747.836 162.991V238.543H720.153V130.118H742.069C744.376 130.118 746.106 132.136 746.106 134.155V138.769C754.18 130.406 764.849 127.234 775.519 127.234C787.63 127.234 797.723 130.695 805.797 137.615C815.602 145.69 819.35 156.071 819.35 174.238ZM652.964 127.234C633.932 127.234 624.993 138.769 624.993 138.769V77.9241H597.31V238.543H620.668C622.974 238.543 624.705 236.524 624.705 234.506V229.603C624.705 229.603 633.644 241.426 652.676 241.426C684.108 241.426 708.619 217.204 708.619 184.33C708.907 151.457 684.396 127.234 652.964 127.234ZM648.35 215.185C637.681 215.185 629.318 209.706 624.993 203.362V164.722C629.318 158.954 638.546 152.899 648.35 152.899C666.806 152.899 680.936 164.433 680.936 184.042C680.936 203.651 666.806 215.185 648.35 215.185ZM573.376 127.234C581.738 127.234 586.064 128.676 586.064 128.676V154.34C586.064 154.34 562.995 146.555 548.577 162.991V238.831H520.894V130.118H544.251C546.558 130.118 548.288 132.136 548.288 134.155V138.769C553.479 132.713 564.725 127.234 573.376 127.234ZM285.877 228.738C284.435 225.278 282.993 221.529 281.552 218.357C279.245 213.167 276.938 208.265 274.919 203.651L274.631 203.362C254.734 160.108 233.395 116.276 210.902 73.0219L210.037 71.2917C207.73 66.9662 205.423 62.3524 203.117 57.7386C200.233 52.548 197.349 47.0691 192.735 41.8786C183.508 30.344 170.243 24 156.113 24C141.695 24 128.719 30.344 119.203 41.3018C114.877 46.4924 111.705 51.9713 108.822 57.1618C106.515 61.7757 104.208 66.3895 101.901 70.715L101.036 72.4451C78.8317 115.7 57.2044 159.531 37.3073 202.786L37.019 203.362C35.0004 207.976 32.6935 212.878 30.3866 218.069C28.9448 221.241 27.5029 224.701 26.0611 228.45C22.3124 239.119 21.1589 249.212 22.6008 259.593C25.7728 281.221 40.191 299.388 60.0881 307.462C67.5855 310.634 75.3714 312.076 83.4455 312.076C85.7525 312.076 88.6361 311.787 90.943 311.499C100.459 310.345 110.263 307.173 119.779 301.694C131.602 295.062 142.849 285.546 155.537 271.705C168.225 285.546 179.759 295.062 191.294 301.694C200.81 307.173 210.614 310.345 220.13 311.499C222.437 311.787 225.321 312.076 227.627 312.076C235.702 312.076 243.776 310.634 250.985 307.462C271.17 299.388 285.3 280.932 288.472 259.593C290.779 249.501 289.626 239.408 285.877 228.738ZM155.825 243.733C140.253 224.125 130.161 205.669 126.7 190.098C125.258 183.465 124.97 177.698 125.835 172.507C126.412 167.894 128.142 163.856 130.449 160.396C135.928 152.61 145.155 147.708 155.825 147.708C166.494 147.708 176.01 152.322 181.201 160.396C183.508 163.856 185.238 167.894 185.815 172.507C186.68 177.698 186.391 183.754 184.95 190.098C181.489 205.381 171.397 223.836 155.825 243.733ZM270.882 257.286C268.864 272.281 258.771 285.258 244.641 291.025C237.72 293.909 230.223 294.774 222.725 293.909C215.516 293.044 208.307 290.737 200.81 286.411C190.429 280.644 180.047 271.705 167.936 258.44C186.968 235.082 198.503 213.743 202.828 194.711C204.847 185.772 205.135 177.698 204.27 170.201C203.117 162.991 200.521 156.359 196.484 150.592C187.545 137.615 172.55 130.118 155.825 130.118C139.1 130.118 124.105 137.904 115.166 150.592C111.128 156.359 108.533 162.991 107.38 170.201C106.226 177.698 106.515 186.061 108.822 194.711C113.147 213.743 124.97 235.371 143.714 258.728C131.891 271.993 121.221 280.932 110.84 286.7C103.343 291.025 96.1336 293.332 88.9245 294.197C81.1386 295.062 73.6412 293.909 67.0088 291.313C52.879 285.546 42.7862 272.57 40.7677 257.575C39.9026 250.366 40.4793 243.157 43.363 235.082C44.2281 232.199 45.6699 229.315 47.1117 225.855C49.1302 221.241 51.4372 216.339 53.7441 211.437L54.0324 210.86C73.9295 167.894 95.2685 124.062 117.472 81.3844L118.338 79.6542C120.644 75.3288 122.951 70.715 125.258 66.3895C127.565 61.7757 130.161 57.4502 133.333 53.7015C139.388 46.7807 147.462 43.032 156.402 43.032C165.341 43.032 173.415 46.7807 179.471 53.7015C182.643 57.4502 185.238 61.7757 187.545 66.3895C189.852 70.715 192.159 75.3288 194.466 79.6542L195.331 81.3844C217.246 124.351 238.585 168.182 258.482 211.148V211.437C260.789 216.05 262.808 221.241 265.115 225.855C266.557 229.315 267.998 232.199 268.864 235.082C271.17 242.58 272.036 249.789 270.882 257.286Z" />
</svg>
