<svg width="741" height="685" viewBox="0 0 741 685" fill="none"
    xmlns="http://www.w3.org/2000/svg">
    <path d="M89.5926 575.588C81.6965 572.924 75.7049 568.264 71.618 561.609C67.4245 555.269 67.9877 545.257 73.3076 531.573C79.1603 516.31 85.6999 500.574 92.9263 484.367C100.153 468.16 107.164 453.112 113.961 439.222C128.828 408.707 138.087 384.391 141.736 366.274C145.808 347.947 145.174 333.662 139.835 323.418C134.812 313.28 126.252 304.764 114.155 297.868C108.264 294.474 104.01 290.4 101.392 285.647C98.8803 280.579 98.6368 275.044 100.661 269.043C103.325 261.147 108.242 257.001 115.411 256.605C122.264 256.103 130.429 257.45 139.904 260.646C147.168 263.097 156.326 266.714 167.377 271.497C178.85 276.071 191.166 280.754 204.325 285.545C227.633 252.952 250.231 227.156 272.12 208.155C294.008 189.155 315.455 175.635 336.461 167.594C357.573 159.238 378.194 155.465 398.325 156.275C418.562 156.77 438.471 160.32 458.054 166.927C482.374 175.131 491.604 187.919 485.743 205.291C482.866 213.818 476.576 218.908 466.872 220.559C457.169 222.211 443.468 221.634 425.769 218.83C404.698 215.591 384.985 216.153 366.628 220.514C348.586 224.981 330.951 233.983 313.72 247.518C296.805 261.16 279.449 280.282 261.651 304.884C305.873 318.747 342.678 328.525 372.067 334.218C401.456 339.911 424.317 343.577 440.649 345.217C457.404 346.648 468.782 348.376 474.783 350.4C483.311 353.277 487.83 357.088 488.34 361.834C489.166 366.686 488.78 371.48 487.181 376.218C485.37 381.587 478.452 385.41 466.427 387.685C458.515 389.238 446.496 389.932 430.369 389.769C414.348 389.289 395.801 387.957 374.727 385.773C353.759 383.273 331.9 379.768 309.147 375.259C286.817 370.54 265.388 364.718 244.858 357.792C239.804 356.087 235.224 354.542 231.118 353.157C221.464 370.304 211.437 388.556 201.037 407.914C191.059 427.063 181.557 445.844 172.531 464.258C163.504 482.672 155.38 499.456 148.157 514.609C141.251 529.868 136.041 542.182 132.529 551.551C128.27 563.131 122.34 570.804 114.737 574.572C107.133 578.339 98.7521 578.678 89.5926 575.588Z" />
    <path d="M216.001 568.924C207.735 569.068 201.019 566.319 195.853 560.675C190.685 554.898 187.988 545.543 187.761 532.612C187.617 524.347 188.406 516.065 190.127 507.767C191.98 499.333 194.574 491.353 197.91 483.827C201.377 476.165 205.392 469.361 209.955 463.414C214.652 457.464 219.837 452.772 225.511 449.339C231.183 445.773 237.085 443.936 243.218 443.829C253.616 443.647 261.797 446.305 267.761 451.801C273.725 457.298 276.782 464.379 276.934 473.044C277.05 479.71 275.29 485.808 271.653 491.339C268.146 496.735 263.298 501.62 257.107 505.996C250.916 510.371 243.984 514.36 236.313 517.961C228.641 521.562 220.764 524.834 212.681 527.776C212.098 532.587 211.839 536.858 211.905 540.591C211.944 542.858 213.231 543.969 215.763 543.924C221.763 543.819 228.145 542.774 234.912 540.789C241.809 538.668 248.764 536.013 255.776 532.823C262.785 529.5 269.527 526.115 276.001 522.668C282.473 519.088 288.348 515.718 293.627 512.558C299.037 509.263 303.459 506.652 306.892 504.725C310.457 502.662 312.772 501.622 313.839 501.603C316.771 501.552 318.92 502.381 320.283 504.091C321.646 505.801 322.346 507.655 322.381 509.655C322.397 510.588 320.633 512.686 317.09 515.948C313.68 519.209 308.947 523.092 302.891 527.599C296.967 531.969 290.246 536.554 282.729 541.353C275.343 546.016 267.619 550.485 259.56 554.76C251.631 558.899 243.888 562.235 236.331 564.768C228.91 567.431 222.133 568.817 216.001 568.924ZM215.769 509.919C221.179 506.624 226.52 503.197 231.792 499.637C237.195 495.942 241.657 491.864 245.18 487.401C248.7 482.806 250.408 477.508 250.303 471.509C250.272 469.776 249.786 468.651 248.844 468.134C247.899 467.484 246.56 467.174 244.827 467.204C240.161 467.286 235.931 469.427 232.137 473.627C228.476 477.825 225.237 483.216 222.418 489.8C219.731 496.248 217.514 502.954 215.769 509.919ZM487.807 552.769C487.133 559.982 482.93 563.656 475.197 563.792C471.198 563.862 467.977 562.718 465.536 560.36C463.228 558 462.034 554.554 461.955 550.021C461.819 542.289 462.008 534.018 462.521 525.207C463.165 516.261 463.94 507.246 464.848 498.163C465.89 489.076 466.871 480.391 467.793 472.107C463.115 479.123 458.174 486.344 452.97 493.77C447.765 501.195 442.558 508.42 437.346 515.446C432.135 522.471 427.112 528.827 422.277 534.512C417.574 540.062 413.251 544.538 409.31 547.941C405.367 551.211 402.062 552.869 399.396 552.915C392.997 553.027 387.423 550.791 382.676 546.206C377.926 541.489 375.487 535.464 375.359 528.132C375.314 525.599 375.522 522.195 375.98 517.919C376.437 513.511 377.022 508.833 377.735 503.886C378.449 498.94 379.034 494.262 379.49 489.854C379.946 485.445 380.152 481.974 380.108 479.441C380.108 479.441 380.106 479.308 380.101 479.041C380.223 478.372 380.084 478.041 379.684 478.048C379.15 478.058 377.715 479.883 375.379 483.524C373.04 487.033 370.186 491.616 366.818 497.276C363.45 502.936 359.886 508.866 356.127 515.066C352.502 521.264 349.069 527.058 345.83 532.449C342.723 537.837 340.129 542.016 338.048 544.987C335.194 549.57 332.511 552.484 329.999 553.729C327.487 554.973 324.565 555.624 321.232 555.682C316.566 555.764 312.873 554.295 310.153 551.275C307.564 548.12 306.22 543.676 306.12 537.944C306.078 535.544 306.412 531.804 307.124 526.724C307.968 521.642 309.003 516.023 310.229 509.867C311.453 503.578 312.68 497.489 313.911 491.6C315.272 485.576 316.45 480.488 317.444 476.336C318.549 470.849 320.148 467.021 322.244 464.851C324.471 462.545 327.317 461.361 330.783 461.301C338.916 461.159 343.052 465.087 343.191 473.086C343.217 474.552 342.792 476.96 341.917 480.309C341.043 483.658 339.977 487.544 338.721 491.967C337.465 496.389 336.144 500.946 334.759 505.638C333.372 510.196 332.247 514.483 331.384 518.499C334.485 512.844 337.846 506.784 341.467 500.32C345.088 493.856 348.778 487.523 352.537 481.323C356.429 475.121 360.264 469.453 364.041 464.32C367.952 459.184 371.815 455.116 375.63 452.115C379.442 448.981 383.081 447.384 386.548 447.324C390.014 447.263 393.435 448.47 396.812 450.945C400.187 453.286 402.975 456.371 405.176 460.2C407.507 463.893 408.71 467.873 408.785 472.139C408.855 476.138 408.405 480.947 407.437 486.564C406.468 492.182 405.371 498.069 404.145 504.225C402.919 510.38 402.091 516.396 401.66 522.271C406.104 517.126 410.803 511.309 415.757 504.822C420.709 498.201 425.79 491.378 431.002 484.352C436.213 477.327 441.295 470.503 446.246 463.882C451.331 457.259 456.027 451.243 460.333 445.833C464.772 440.422 468.698 436.152 472.111 433.026C475.521 429.765 478.159 428.119 480.026 428.086C485.491 427.991 489.783 429.383 492.901 432.262C496.149 435.006 497.835 439.91 497.959 446.976C498.035 451.375 497.802 457.113 497.259 464.191C496.85 471.266 496.184 478.945 495.262 487.229C494.471 495.378 493.549 503.662 492.496 512.081C491.574 520.365 490.708 528.048 489.899 535.13C489.089 542.212 488.392 548.092 487.807 552.769ZM569.79 565.938C557.792 566.148 548.262 562.647 541.202 555.436C534.272 548.09 530.688 537.551 530.448 523.82C530.317 516.354 531.164 507.605 532.989 497.571C534.812 487.404 537.225 476.694 540.228 465.44C543.363 454.05 546.7 442.79 550.239 431.659C553.912 420.527 557.532 410.195 561.099 400.665C564.666 391.134 567.794 383.145 570.482 376.697C572.795 371.723 576.151 369.197 580.551 369.12C583.35 369.071 585.632 369.898 587.395 371.601C589.292 373.301 590.274 376.084 590.341 379.95C590.374 381.817 589.512 385.899 587.755 392.198C585.998 398.496 583.667 406.271 580.762 415.523C577.988 424.64 574.959 434.494 571.677 445.087C568.529 455.677 565.515 466.331 562.635 477.05C559.888 487.766 557.665 497.873 555.964 507.371C554.261 516.735 553.466 524.684 553.58 531.216C553.627 533.883 554.398 536.003 555.892 537.577C557.52 539.149 559.6 539.912 562.133 539.868C567.599 539.772 573.181 538.675 578.878 536.575C584.709 534.473 590.397 531.839 595.943 528.675C601.621 525.509 606.963 522.148 611.969 518.594C616.974 515.039 621.45 511.693 625.395 508.557C629.472 505.285 632.761 502.694 635.261 500.784C638.549 498.192 640.794 496.886 641.993 496.865C646.526 496.786 648.831 498.946 648.908 503.345C648.926 504.412 647.632 506.635 645.024 510.014C642.809 512.987 639.674 516.776 635.621 521.38C631.568 525.985 626.852 530.869 621.475 536.03C616.229 541.056 610.578 545.822 604.522 550.329C598.6 554.833 592.664 558.537 586.714 561.442C580.764 564.346 575.122 565.845 569.79 565.938ZM667.416 560.831C657.95 560.996 650.293 557.796 644.444 551.231C638.593 544.532 635.568 535.517 635.37 524.185C635.307 520.586 635.71 516.912 636.577 513.162C637.579 509.411 638.785 505.923 640.195 502.698C639.374 501.512 638.681 499.99 638.115 498.133C637.68 496.141 637.439 493.811 637.393 491.145C637.241 482.479 638.636 474.521 641.576 467.268C644.514 459.882 648.536 453.478 653.642 448.054C658.748 442.631 664.408 438.398 670.622 435.355C676.837 432.313 683.144 430.736 689.543 430.624C700.474 430.433 709.47 433.943 716.531 441.154C723.725 448.362 727.457 459.699 727.727 475.163C727.862 482.895 726.8 490.782 724.54 498.822C722.28 506.863 719.148 514.586 715.144 521.99C711.27 529.259 706.717 535.806 701.485 541.632C696.386 547.455 690.866 552.086 684.925 555.524C679.118 558.959 673.281 560.728 667.416 560.831ZM663.034 493.297C663.726 494.752 664.09 496.479 664.125 498.479C664.16 500.478 663.796 502.552 663.034 504.699C662.271 506.846 661.521 509.726 660.784 513.339C660.045 516.819 659.732 521.826 659.847 528.358C659.877 530.091 660.103 531.554 660.524 532.747C661.075 533.804 662.218 534.317 663.951 534.287C668.484 534.208 672.724 532.667 676.672 529.664C680.754 526.659 684.352 522.729 687.468 517.873C690.717 513.016 693.423 507.634 695.587 501.729C697.881 495.688 699.575 489.591 700.668 483.437C701.891 477.148 702.456 471.338 702.363 466.005C702.302 462.539 701.594 460.151 700.238 458.841C698.881 457.531 696.536 456.906 693.204 456.964C688.671 457.043 684.031 458.591 679.283 461.608C674.666 464.489 670.801 468.424 667.687 473.412C664.572 478.268 663.068 483.761 663.175 489.894C663.196 491.094 663.149 492.228 663.034 493.297Z" />
</svg>
