<svg width="924" height="250" viewBox="0 0 924 250" fill="none" xmlns="http://www.w3.org/2000/svg">
<path d="M177.788 106.845H100.22C99.2584 106.846 98.3363 107.228 97.6566 107.908C96.9768 108.589 96.5949 109.511 96.5949 110.472V148.395C96.5949 150.398 98.2191 152.024 100.22 152.024H130.48V199.145C130.48 199.145 123.685 201.459 104.9 201.459C82.7385 201.459 51.7813 193.363 51.7813 125.286C51.7813 57.1939 84.0187 48.235 114.282 48.235C140.48 48.235 151.767 52.848 158.948 55.07C161.204 55.7581 163.292 53.5131 163.292 51.5122L171.945 14.8693C171.945 13.9314 171.628 12.8031 170.561 12.0381C167.645 9.95646 149.852 0 104.9 0C53.119 0 0 22.033 0 127.94C0 233.85 60.8151 249.632 112.064 249.632C154.496 249.632 180.237 231.499 180.237 231.499C181.298 230.915 181.413 229.431 181.413 228.752V110.472C181.413 109.996 181.32 109.525 181.138 109.085C180.956 108.645 180.689 108.245 180.352 107.908C180.015 107.571 179.616 107.304 179.176 107.122C178.736 106.939 178.264 106.845 177.788 106.845ZM577.542 12.6897C577.546 12.2135 577.456 11.7412 577.277 11.2999C577.099 10.8586 576.834 10.457 576.5 10.1181C576.165 9.7793 575.767 9.50992 575.328 9.32549C574.889 9.14106 574.418 9.04521 573.942 9.04346H530.266C529.789 9.04548 529.317 9.14139 528.878 9.32572C528.438 9.51005 528.039 9.77919 527.703 10.1178C527.367 10.4564 527.101 10.8578 526.921 11.299C526.74 11.7403 526.648 12.2129 526.65 12.6897L526.66 97.0966H458.583V12.6897C458.583 10.6715 456.976 9.04346 454.977 9.04346H411.303C410.342 9.04956 409.422 9.43696 408.746 10.1206C408.07 10.8042 407.693 11.7282 407.698 12.6897V241.235C407.698 243.249 409.318 244.89 411.303 244.89H454.977C456.976 244.89 458.583 243.249 458.583 241.235V143.477H526.66L526.543 241.235C526.543 243.249 528.159 244.89 530.162 244.89H573.938C575.937 244.89 577.536 243.249 577.54 241.235L577.542 12.6897ZM260.206 42.6801C260.206 26.9555 247.597 14.2466 232.041 14.2466C216.501 14.2466 203.882 26.9555 203.882 42.6801C203.882 58.3913 216.501 71.1348 232.041 71.1348C247.597 71.1348 260.206 58.3913 260.206 42.6801ZM257.082 193.025V87.5265C257.082 85.5256 255.468 83.888 253.469 83.888H209.933C207.934 83.888 206.147 85.9446 206.147 87.9493V239.095C206.147 243.535 208.915 244.858 212.497 244.858H251.723C256.027 244.858 257.082 242.743 257.082 239.024V193.025ZM743.528 84.2301H700.189C698.199 84.2301 696.583 85.8677 696.583 87.8859V199.946C696.583 199.946 685.569 208.003 669.943 208.003C654.316 208.003 650.168 200.911 650.168 185.611V87.884C650.168 85.8658 648.554 84.2282 646.564 84.2282H602.577C600.593 84.2282 598.965 85.8658 598.965 87.884V193.007C598.965 238.457 624.297 249.578 659.142 249.578C687.734 249.578 710.783 233.783 710.783 233.783C710.783 233.783 711.879 242.107 712.379 243.093C712.873 244.077 714.166 245.073 715.565 245.073L743.549 244.95C745.533 244.95 747.159 243.309 747.159 241.3L747.144 87.884C747.144 85.8658 745.525 84.2301 743.528 84.2301ZM844.892 207.865C829.857 207.406 819.66 200.586 819.66 200.586V128.21C819.66 128.21 829.719 122.043 842.062 120.942C857.67 119.545 872.708 124.258 872.708 161.491C872.708 200.749 865.923 208.499 844.892 207.865ZM861.985 79.0962C837.369 79.0962 820.627 90.0809 820.627 90.0809V12.6897C820.627 10.6715 819.013 9.04346 817.023 9.04346H773.223C772.746 9.04598 772.275 9.14229 771.836 9.32689C771.397 9.5115 770.999 9.78078 770.664 10.1194C770.329 10.4579 770.063 10.8592 769.884 11.3002C769.704 11.7412 769.612 12.2134 769.615 12.6897V241.235C769.615 243.253 771.231 244.892 773.228 244.892H803.617C804.985 244.892 806.021 244.185 806.788 242.949C807.544 241.721 808.633 232.414 808.633 232.414C808.633 232.414 826.542 249.384 860.445 249.384C900.252 249.384 923.077 229.195 923.077 158.748C923.077 88.303 886.619 79.0962 861.985 79.0962ZM382.609 83.8668H349.846L349.796 40.5831C349.796 38.9455 348.955 38.1267 347.057 38.1267H302.413C300.679 38.1267 299.745 38.8917 299.745 40.5601V85.2872C299.745 85.2872 277.372 90.6864 275.861 91.1246C275.106 91.343 274.443 91.8007 273.971 92.4289C273.498 93.0571 273.243 93.8216 273.243 94.6075V122.714C273.243 124.732 274.858 126.366 276.855 126.366H299.747V193.982C299.747 244.202 334.973 249.136 358.744 249.136C369.607 249.136 382.601 245.648 384.746 244.856C386.043 244.379 386.799 243.037 386.799 241.581L386.835 210.662C386.835 208.644 385.13 207.01 383.214 207.01C381.303 207.01 376.419 207.788 371.391 207.788C355.299 207.788 349.844 200.307 349.844 190.624V126.364H382.609C383.086 126.362 383.558 126.266 383.998 126.081C384.438 125.896 384.837 125.627 385.173 125.287C385.509 124.948 385.774 124.546 385.955 124.104C386.135 123.663 386.227 123.19 386.224 122.712V87.5092C386.224 85.491 384.606 83.8668 382.609 83.8668Z" />
</svg>
