<svg width="212" height="28" viewBox="0 0 212 28" fill="none"
    xmlns="http://www.w3.org/2000/svg">
        <path fill-rule="evenodd" clip-rule="evenodd" d="M42.5846 13.8547H48.8881C48.4684 12.2533 47.3184 11.604 45.9178 11.604C44.3777 11.604 43.1436 12.4434 42.5846 13.8547ZM52.5863 16.5932H42.361C42.7807 18.6558 44.5169 19.4158 46.0295 19.4158C47.9345 19.4158 48.7489 18.2761 48.7489 18.2761H52.2782C51.2129 20.9882 48.6645 22.4792 45.9178 22.4792C42.1352 22.4792 38.8296 19.6853 38.8296 15.4556C38.8296 11.2505 42.1077 8.64648 45.8058 8.64648C49.3923 8.64648 53.0357 11.0603 52.5863 16.5932Z" />
        <path fill-rule="evenodd" clip-rule="evenodd" d="M87.3225 15.5638C87.3225 13.4479 86.0336 11.7937 83.9049 11.7937C81.7744 11.7937 80.3459 13.4479 80.3459 15.5638C80.3459 17.6797 81.7744 19.3338 83.9049 19.3338C86.0336 19.3338 87.3225 17.6797 87.3225 15.5638ZM76.6753 15.5901C76.6753 11.2505 80.1498 8.64648 83.9049 8.64648C87.6875 8.64648 90.9931 11.2769 90.9931 15.535C90.9931 19.8485 87.5734 22.4789 83.7911 22.4789C79.981 22.4789 76.6753 19.8485 76.6753 15.5901Z" />
        <path fill-rule="evenodd" clip-rule="evenodd" d="M105.991 14.9942V22.3444H102.263V15.8069C102.263 15.3454 102.601 11.9284 99.9113 11.794C98.5927 11.7122 96.2403 12.4165 96.2403 15.9704V22.3444H92.5425V8.78124H95.9372L95.9482 10.6641C95.9482 10.6641 97.4788 8.64648 100.333 8.64648C103.947 8.64648 105.991 11.2505 105.991 14.9942Z" />
        <path fill-rule="evenodd" clip-rule="evenodd" d="M119.618 11.5221C118.441 11.5221 117.936 12.0919 117.936 12.6618C117.936 13.5829 119.198 13.8545 120.038 14.018C122.533 14.5324 125.054 15.2658 125.054 18.139C125.054 20.9331 122.673 22.4792 119.787 22.4792C116.565 22.4792 114.072 20.5819 113.903 17.7063H117.348C117.432 18.519 117.993 19.5769 119.702 19.5769C121.13 19.5769 121.468 18.846 121.468 18.2761C121.468 17.2712 120.487 16.9729 119.533 16.7564C117.882 16.4031 114.323 15.7539 114.323 12.6618C114.323 10.0027 116.958 8.64648 119.675 8.64648C122.812 8.64648 124.885 10.4908 125.054 12.7699H121.607C121.495 12.3084 121.048 11.5221 119.618 11.5221Z" />
        <path fill-rule="evenodd" clip-rule="evenodd" d="M136.381 15.5638C136.381 13.3111 135.12 11.9836 133.299 11.9836C131.59 11.9836 129.879 13.1763 129.879 15.5638C129.879 17.9492 131.59 19.144 133.299 19.144C135.12 19.144 136.381 17.8145 136.381 15.5638ZM139.883 8.78124V27.7686H136.381V21.0146C135.485 21.9908 134.223 22.4789 132.765 22.4789C129.209 22.4789 126.238 19.6587 126.238 15.5637C126.238 11.4667 129.209 8.64648 132.765 8.64648C135.561 8.64648 136.608 10.463 136.608 10.463L136.603 8.78124H139.883Z" />
        <path fill-rule="evenodd" clip-rule="evenodd" d="M159.905 13.8547H166.208C165.788 12.2533 164.638 11.604 163.238 11.604C161.698 11.604 160.464 12.4434 159.905 13.8547ZM169.906 16.5932H159.679C160.101 18.6558 161.837 19.4158 163.349 19.4158C165.254 19.4158 166.069 18.2761 166.069 18.2761H169.598C168.533 20.9882 165.984 22.4792 163.238 22.4792C159.455 22.4792 156.15 19.6853 156.15 15.4556C156.15 11.2505 159.428 8.64648 163.126 8.64648C166.712 8.64648 170.356 11.0603 169.906 16.5932Z" />
        <path fill-rule="evenodd" clip-rule="evenodd" d="M174.791 13.8547H181.094C180.674 12.2533 179.524 11.604 178.124 11.604C176.584 11.604 175.35 12.4434 174.791 13.8547ZM184.792 16.5932H174.567C174.987 18.6558 176.723 19.4158 178.235 19.4158C180.141 19.4158 180.955 18.2761 180.955 18.2761H184.484C183.419 20.9882 180.87 22.4792 178.124 22.4792C174.341 22.4792 171.036 19.6853 171.036 15.4556C171.036 11.2505 174.314 8.64648 178.012 8.64648C181.598 8.64648 185.242 11.0603 184.792 16.5932Z" />
        <path fill-rule="evenodd" clip-rule="evenodd" d="M197.267 19.3064V22.3431H185.36V20.5522L192.113 11.8193H185.641V8.78027H196.988V10.5712L190.235 19.3064H197.267Z" />
        <path fill-rule="evenodd" clip-rule="evenodd" d="M211.845 8.78027V20.7156V20.9872C211.845 24.6492 209.91 27.9048 205.119 27.9048C200.636 27.9048 198.2 25.0555 198.2 22.9133H201.702C201.702 22.9133 202.233 24.7309 205.007 24.7309C207.362 24.7309 208.343 23.4277 208.343 21.5304V20.9606C207.724 21.6388 206.55 22.4782 204.448 22.4782C200.778 22.4782 198.48 19.9029 198.48 16.1326L198.451 8.78027H202.094V15.3178C202.094 17.1618 202.767 19.3331 205.092 19.3331C206.296 19.3331 208.286 18.7632 208.286 15.1543V8.78027H211.845Z" />
        <path fill-rule="evenodd" clip-rule="evenodd" d="M36.1625 18.2723C36.1625 19.1181 36.4957 19.467 37.114 19.467C37.5496 19.467 37.8326 19.4164 38.2453 19.2926L38.476 22.0799C37.7047 22.3272 36.9589 22.4774 36.0074 22.4774C33.8243 22.4774 32.4873 21.7817 32.4873 18.7693V3.35645H36.1625V18.2723Z" />
        <path fill-rule="evenodd" clip-rule="evenodd" d="M75.0944 14.9942V22.3444H71.3665V15.8069C71.3665 13.9362 71.563 11.5754 68.9848 11.794C68.3142 11.847 66.4639 12.1449 66.4639 15.9704V22.3444H62.7658V15.8069C62.7658 13.9362 62.9619 11.5754 60.3841 11.794C59.711 11.847 57.8632 12.1449 57.8632 15.9704V22.3444H54.165V8.78124H57.56L57.5631 10.6641C57.5631 10.6641 58.8605 8.64648 61.2805 8.64648C64.1966 8.64648 65.3412 10.8429 65.3412 10.8429C65.3412 10.8429 66.5967 8.62012 69.7992 8.62012C73.4405 8.62012 75.0944 11.2241 75.0944 14.9942Z" />
        <path fill-rule="evenodd" clip-rule="evenodd" d="M141.455 16.1305V8.78027H145.183V15.3178C145.183 15.7792 144.845 19.1962 147.535 19.3307C148.853 19.4125 151.205 18.7081 151.205 15.1543V8.78027H154.904V22.3434H151.513L151.498 20.4606C151.498 20.4606 149.967 22.4782 147.113 22.4782C143.499 22.4782 141.455 19.8742 141.455 16.1305Z" />
        <path fill-rule="evenodd" clip-rule="evenodd" d="M6.92833 17.1851L14.4397 20.6578C15.3706 21.0884 16.0278 21.8111 16.3827 22.6401C17.2803 24.7394 16.0535 26.8864 14.1276 27.6586C12.2015 28.4304 10.1486 27.9337 9.2152 25.7506L5.94628 18.0861C5.69297 17.492 6.32931 16.9082 6.92833 17.1851Z" />
        <path fill-rule="evenodd" clip-rule="evenodd" d="M7.37955 14.9381L15.1332 12.0071C17.71 11.033 20.525 12.8761 20.487 15.5541C20.4864 15.5891 20.4858 15.624 20.4849 15.6593C20.4292 18.2671 17.6926 20.0199 15.1723 19.0973L7.3869 16.2478C6.76585 16.0206 6.76126 15.1718 7.37955 14.9381Z" />
        <path fill-rule="evenodd" clip-rule="evenodd" d="M6.94499 13.9224L14.5671 10.6837C17.0999 9.60736 17.7427 6.37695 15.759 4.51043C15.733 4.48585 15.707 4.46156 15.6807 4.43728C13.7358 2.63207 10.5208 3.26767 9.41358 5.64539L5.99323 12.9915C5.72033 13.5773 6.3371 14.1806 6.94499 13.9224Z" />
        <path fill-rule="evenodd" clip-rule="evenodd" d="M4.98349 12.6426L7.75465 5.04415C8.09822 4.102 8.03458 3.1412 7.67939 2.3122C6.77994 0.21378 4.34409 -0.463579 2.41853 0.309741C0.493284 1.08336 -0.594621 2.84029 0.340622 5.02253L3.63095 12.6787C3.8861 13.272 4.76261 13.2486 4.98349 12.6426Z" />
    <defs>
        <clipPath id="clip0_259_19">
            <rect width="212" height="28" />
        </clipPath>
    </defs>
</svg>
