<svg width="972" height="316" viewBox="0 0 972 316" fill="none" xmlns="http://www.w3.org/2000/svg">
<path d="M157.536 0C70.3803 0 0 70.5883 0 157.545C0 244.692 70.571 315.09 157.545 315.09C244.692 315.09 315.09 244.519 315.09 157.545C315.09 70.571 244.519 0 157.545 0H157.536ZM229.815 227.37C226.989 232.078 220.972 233.396 216.265 230.578C179.184 207.994 132.689 202.922 77.7235 215.32C72.4523 216.447 67.1812 213.239 66.0541 207.976C64.927 202.714 68.1348 197.434 73.3973 196.307C133.443 182.566 185.01 188.4 226.417 213.82C231.124 216.646 232.624 222.663 229.798 227.37H229.815ZM249.01 184.456C245.438 190.29 237.913 191.981 232.069 188.6C189.718 162.625 125.172 155.1 75.0966 170.151C68.5076 172.032 61.7453 168.46 59.838 162.053C57.9566 155.464 61.5285 148.702 68.1175 146.795C125.337 129.481 196.48 137.761 245.239 167.602C250.874 170.983 252.582 178.526 249.001 184.352L249.01 184.456ZM250.7 139.659C199.879 109.541 116.121 106.715 67.5626 121.401C59.7599 123.846 51.5671 119.32 49.1136 111.604C46.6601 103.888 51.1943 95.609 58.9103 93.1554C114.622 76.2149 207.231 79.6048 265.578 114.24C272.539 118.384 274.802 127.418 270.658 134.38C266.895 141.532 257.671 143.795 250.718 139.651L250.7 139.659Z" />
<path d="M397.052 152.814C370.181 146.514 365.548 141.881 365.548 132.43C365.548 123.535 373.888 117.605 386.304 117.605C398.349 117.605 410.394 122.237 422.996 131.503C423.366 131.874 423.922 131.874 424.293 131.874C424.849 131.874 425.219 131.503 425.405 131.133L438.562 112.601C438.823 112.229 438.93 111.771 438.861 111.322C438.792 110.873 438.552 110.468 438.191 110.192C423.181 98.1466 406.317 92.4019 386.674 92.4019C357.765 92.4019 337.566 109.821 337.566 134.653C337.566 161.339 354.986 170.79 385.192 178.017C410.765 183.947 415.213 188.95 415.213 197.66C415.213 207.482 406.503 213.597 392.419 213.597C376.853 213.597 364.066 208.408 349.797 195.992C349.426 195.622 348.87 195.622 348.5 195.622C347.944 195.622 347.573 195.807 347.388 196.178L332.748 213.597C332.192 214.338 332.192 215.45 332.933 216.006C349.611 230.831 369.996 238.615 392.048 238.615C423.181 238.615 443.38 221.566 443.38 195.251C443.01 173.013 429.667 160.783 397.052 152.814ZM513.614 126.314C500.086 126.314 488.967 131.688 479.887 142.622V130.391C479.887 129.465 479.146 128.723 478.219 128.723H454.314C453.387 128.723 452.646 129.465 452.646 130.391V266.782C452.646 267.709 453.387 268.45 454.314 268.45H478.219C479.146 268.45 479.887 267.709 479.887 266.782V223.789C488.967 233.982 500.086 238.985 513.614 238.985C538.632 238.985 564.205 219.713 564.205 182.65C564.02 145.772 538.632 126.314 513.614 126.314ZM536.223 182.65C536.223 201.552 524.548 214.524 508.055 214.524C491.562 214.524 479.331 200.811 479.331 182.65C479.331 164.489 491.747 150.776 508.055 150.776C524.362 150.776 536.223 164.118 536.223 182.65ZM629.25 126.314C597.005 126.314 571.617 151.146 571.617 183.02C571.617 214.524 596.82 239.171 628.879 239.171C661.309 239.171 686.697 214.338 686.697 182.65C686.697 151.146 661.495 126.314 629.25 126.314ZM629.25 214.709C612.016 214.709 599.044 200.811 599.044 182.65C599.044 164.304 611.645 150.961 628.879 150.961C646.114 150.961 659.271 164.86 659.271 183.206C659.086 201.366 646.484 214.709 629.25 214.709ZM755.634 128.538H729.32V101.482C729.32 100.556 728.578 99.8145 727.652 99.8145H703.746C702.82 99.8145 702.078 100.556 702.078 101.482V128.538H690.589C689.662 128.538 688.921 129.279 688.921 130.206V150.776C688.921 151.702 689.662 152.444 690.589 152.444H702.078V205.814C702.078 227.31 712.827 238.244 733.952 238.244C742.477 238.244 749.704 236.391 756.375 232.685C756.931 232.314 757.302 231.758 757.302 231.202V211.559C757.302 211.003 756.931 210.447 756.561 210.076C756.005 209.706 755.449 209.706 754.893 210.076C750.26 212.485 745.812 213.412 740.809 213.412C733.026 213.412 729.69 209.891 729.69 202.108V152.629H756.005C756.931 152.629 757.673 151.888 757.673 150.961V130.391C757.487 129.279 756.746 128.538 755.634 128.538ZM847.735 128.723V125.388C847.735 115.566 851.441 111.304 859.78 111.304C864.784 111.304 868.861 112.231 873.308 113.713C873.864 113.898 874.42 113.713 874.976 113.528C875.347 113.157 875.718 112.601 875.718 112.045V91.846C875.718 91.1047 875.162 90.3635 874.42 90.1781C869.602 88.6956 863.672 87.3984 854.406 87.3984C832.169 87.3984 820.494 99.8145 820.494 123.535V128.538H809.005C808.078 128.538 807.151 129.279 807.151 130.206V150.961C807.151 151.888 807.893 152.629 809.005 152.629H820.494V234.908C820.494 235.835 821.235 236.576 822.162 236.576H846.067C846.994 236.576 847.735 235.835 847.735 234.908V152.629H870.158L904.441 234.908C900.55 243.618 896.658 245.286 891.469 245.286C887.207 245.286 882.759 243.989 878.312 241.58C877.941 241.394 877.385 241.394 876.829 241.394C876.459 241.58 875.903 241.95 875.718 242.321L867.564 260.111C867.193 261.038 867.564 261.964 868.305 262.335C876.829 266.968 884.427 268.821 893.878 268.821C911.668 268.821 921.305 260.482 930.015 238.429L971.71 130.947C971.895 130.391 971.895 129.835 971.525 129.279C971.154 128.723 970.598 128.538 970.042 128.538H945.025C944.284 128.538 943.542 129.094 943.357 129.65L917.784 202.664L889.801 129.465C889.616 128.723 888.875 128.353 888.134 128.353H847.735V128.723ZM794.365 128.538H770.459C769.533 128.538 768.791 129.279 768.791 130.206V234.908C768.791 235.835 769.533 236.576 770.459 236.576H794.365C795.291 236.576 796.033 235.835 796.033 234.908V130.391C796.218 129.279 795.291 128.538 794.365 128.538Z" />
<path d="M782.505 115.39C792.023 115.39 799.739 107.674 799.739 98.1561C799.739 88.6379 792.023 80.9219 782.505 80.9219C772.987 80.9219 765.271 88.6379 765.271 98.1561C765.271 107.674 772.987 115.39 782.505 115.39Z" />
</svg>
