<svg width="924" height="385" viewBox="0 0 924 385" fill="none"
    xmlns="http://www.w3.org/2000/svg">
    <path fill-rule="evenodd" clip-rule="evenodd" d="M923.077 198.461C923.077 132.82 891.282 81.0254 830.513 81.0254C769.487 81.0254 732.564 132.82 732.564 197.948C732.564 275.128 776.154 314.102 838.718 314.102C869.231 314.102 892.307 307.179 909.743 297.436V246.154C892.307 254.872 872.307 260.256 846.923 260.256C822.051 260.256 800 251.538 797.179 221.282H922.564C922.564 217.948 923.077 204.615 923.077 198.461ZM796.41 174.102C796.41 145.128 814.102 133.077 830.256 133.077C845.897 133.077 862.564 145.128 862.564 174.102H796.41Z" />
    <path fill-rule="evenodd" clip-rule="evenodd" d="M633.59 81.0254C608.462 81.0254 592.308 92.8203 583.333 101.025L580 85.128H523.59V384.102L587.692 370.513L587.949 297.948C597.18 304.615 610.769 314.102 633.333 314.102C679.231 314.102 721.026 277.179 721.026 195.897C720.769 121.538 678.462 81.0254 633.59 81.0254ZM618.205 257.692C603.077 257.692 594.103 252.307 587.949 245.641L587.692 150.513C594.359 143.077 603.59 137.948 618.205 137.948C641.539 137.948 657.692 164.102 657.692 197.692C657.692 232.051 641.795 257.692 618.205 257.692Z" />
    <path fill-rule="evenodd" clip-rule="evenodd" d="M499.744 0L435.385 13.5897V65.8974L499.744 52.0513V0Z" />
    <path fill-rule="evenodd" clip-rule="evenodd" d="M435.385 85.3848H499.744V309.744H435.385V85.3848Z" />
    <path fill-rule="evenodd" clip-rule="evenodd" d="M366.41 104.359L362.307 85.3848H306.923V309.744H371.025V157.692C386.154 137.949 411.795 141.539 419.743 144.359V85.3848C411.538 82.3079 381.538 76.6668 366.41 104.359Z" />
    <path fill-rule="evenodd" clip-rule="evenodd" d="M238.205 29.7432L175.641 43.0765L175.385 248.461C175.385 286.41 203.846 314.359 241.795 314.359C262.821 314.359 278.205 310.512 286.667 305.897V253.846C278.462 257.179 237.949 268.974 237.949 231.025V140H286.667V85.3842H237.949L238.205 29.7432Z"/>
    <path fill-rule="evenodd" clip-rule="evenodd" d="M64.8718 150.513C64.8718 140.513 73.0769 136.666 86.6667 136.666C106.154 136.666 130.769 142.564 150.256 153.077V92.8203C128.974 84.3587 107.949 81.0254 86.6667 81.0254C34.6154 81.0254 0 108.205 0 153.59C0 224.359 97.4359 213.077 97.4359 243.59C97.4359 255.384 87.1795 259.231 72.8205 259.231C51.5385 259.231 24.359 250.513 2.82051 238.718V299.743C26.6667 310 50.7692 314.359 72.8205 314.359C126.154 314.359 162.821 287.948 162.821 242.051C162.564 165.641 64.8718 179.231 64.8718 150.513Z" />
</svg>
